# xmcd
#
# Track frame offsets: 
#        150
#        14176
#        35392
#        53344
#        73726
#        89119
#        101649
#        121077
#        135492
#        149925
#        163824
#        177228
#        195855
#        209325
#        248232
#        265419
#        280398
#        298767
#        315915
#        330123
#
# Disc length: 4677 seconds
#
# Revision: 0
# Processed by: cddbd v1.5.2PL0 Copyright (c) Steve Scherf et al.
# Submitted via: ExactAudioCopy v1.1
#
DISCID=2f124314
DTITLE=Various Artist - Various - De Pré Historie - De Jaren '70 Vol. 2 - De 
DTITLE=Ultieme 10 CD Collectie - 1977
DYEAR=2019
DGENRE=Top 40
TTITLE0=Abba - Money, Money, Money
TTITLE1=Boney M - Ma Baker
TTITLE2=Gibson Brothers - Non-Stop Dance
TTITLE3=Baccara - Yes Sir, I Can Boogie
TTITLE4=Santa Esmeralda Feat. Leroy Gomez - Don't Let Me Be Misunderst
TTITLE4=ood
TTITLE5=Elvis Presley - Moody Blue
TTITLE6=Donna Summer - Theme From The Deep (Down, Deep Inside)
TTITLE7=Gladys Knight and The Pips - Baby Don't Change Your Mind
TTITLE8=Guys 'n' Dolls - You're My World
TTITLE9=Dana - Fairytale
TTITLE10=Boz Scaggs - What Can I Say
TTITLE11=John Paul Young - Standing In The Rain
TTITLE12=Jesse Green - Flip
TTITLE13=Philadelphia International All Stars - Let's Clean Up The Ghe
TTITLE13=tto
TTITLE14=Hot Blood - Soul Dracula
TTITLE15=Alessi Brothers - Oh Lori
TTITLE16=Smokie - Lay Back In The Arms Of Someone
TTITLE17=Mary MacGregor - Torn Between Two Lovers
TTITLE18=Showaddywaddy - Under The Moon Of Love
TTITLE19=Thembi - Take Me Back To The Old Transvaal
EXTD=
EXTT0=
EXTT1=
EXTT2=
EXTT3=
EXTT4=
EXTT5=
EXTT6=
EXTT7=
EXTT8=
EXTT9=
EXTT10=
EXTT11=
EXTT12=
EXTT13=
EXTT14=
EXTT15=
EXTT16=
EXTT17=
EXTT18=
EXTT19=
PLAYORDER=
